<svg width="32" height="32" viewBox="0 0 32 32" fill="none" xmlns="http://www.w3.org/2000/svg">
<path d="M5.33333 9.33333H26.6667M25.3333 9.33333L24.1773 25.5227C24.1294 26.1954 23.8284 26.8251 23.3348 27.2848C22.8412 27.7444 22.1918 28 21.5173 28H10.4827C9.80818 28 9.15875 27.7444 8.66518 27.2848C8.1716 26.8251 7.87055 26.1954 7.82267 25.5227L6.66667 9.33333H25.3333ZM13.3333 14.6667V22.6667V14.6667ZM18.6667 14.6667V22.6667V14.6667ZM20 9.33333V5.33333C20 4.97971 19.8595 4.64057 19.6095 4.39052C19.3594 4.14048 19.0203 4 18.6667 4H13.3333C12.9797 4 12.6406 4.14048 12.3905 4.39052C12.1405 4.64057 12 4.97971 12 5.33333V9.33333H20Z" stroke="#DC2626" stroke-width="2" stroke-linecap="round" stroke-linejoin="round"/>
</svg>
